<svg width="188" height="195" viewBox="0 0 188 195" fill="none" xmlns="http://www.w3.org/2000/svg">
<path fill-rule="evenodd" clip-rule="evenodd" d="M119.991 0.444727L11.7676 8.40839C3.04135 9.16369 0 14.8525 0 21.6723V139.955C0 145.27 1.8954 149.812 6.4545 155.883L31.8948 188.866C36.0737 194.177 39.871 195.313 47.8504 194.933L173.53 187.349C184.159 186.595 187.2 181.663 187.2 173.322V40.2512C187.2 35.9398 185.493 34.6944 180.461 31.0232C180.184 30.8217 179.897 30.6124 179.6 30.3946L145.053 6.13197C136.7 0.0686371 133.281 -0.694332 119.991 0.444727ZM50.7 38.0685C40.4391 38.7608 38.1075 38.9181 32.2803 34.1874L17.4622 22.4354C15.951 20.9157 16.7089 19.0203 20.5036 18.6439L124.548 11.061C133.279 10.3012 137.835 13.3393 141.254 15.9913L159.1 28.8827C159.86 29.2604 161.755 31.5321 159.476 31.5321L52.0247 37.9795L50.7 38.0685ZM38.7315 172.183V59.2104C38.7315 54.2828 40.2506 52.0065 44.8045 51.6236L168.208 44.4229C172.394 44.044 174.29 46.6999 174.29 51.6236V163.839C174.29 168.771 173.528 172.947 166.691 173.322L48.6024 180.151C41.7683 180.526 38.7315 178.255 38.7315 172.183ZM155.308 65.2704C156.066 68.6861 155.308 72.098 151.884 72.4821L146.194 73.6151V157.019C141.254 159.672 136.699 161.189 132.903 161.189C126.825 161.189 125.303 159.292 120.751 153.608L83.5334 95.225V151.713L95.3101 154.368C95.3101 154.368 95.3101 161.189 85.8091 161.189L59.6154 162.707C58.8542 161.189 59.6154 157.401 62.2719 156.642L69.1073 154.749V80.0618L59.6167 79.3019C58.8555 75.8868 60.7509 70.9624 66.0712 70.5802L94.1713 68.6874L132.903 127.83V75.5105L123.028 74.3782C122.27 70.2026 125.303 67.171 129.101 66.7946L155.308 65.2704Z" fill="white"/>
</svg>
