<svg width="201" height="201" viewBox="0 0 201 201" fill="none" xmlns="http://www.w3.org/2000/svg">
<path d="M189.462 85.3053C193.235 97.6087 192.843 110.734 188.475 122.684C186.945 126.873 181.998 128.36 178.059 126.27L166.958 120.38C163.019 118.289 161.648 113.395 162.619 109.043C165.481 96.2046 159.603 82.5272 147.431 76.0382C132.802 68.2395 114.621 73.7768 106.822 88.4056V88.4056C106.807 88.4332 106.773 88.4438 106.745 88.4291L88.5603 78.7797C84.621 76.6894 83.0797 71.7597 85.6901 68.144C93.1379 57.8281 103.787 50.1451 116.09 46.3722C130.983 41.8053 147.08 43.3415 160.84 50.6429C174.6 57.9442 184.895 70.4127 189.462 85.3053Z" fill="#F1DA08"/>
<path d="M129.223 115.112C129.114 122.407 127.643 129.588 124.915 136.295C122.974 141.068 117.155 142.451 112.752 139.772L106.171 135.768C101.774 133.092 100.531 127.355 101.835 122.375C102.487 119.882 102.841 117.308 102.88 114.709C102.966 108.984 101.523 103.339 98.6993 98.3571C95.8761 93.3757 91.7752 89.2384 86.8203 86.3727C81.8655 83.507 76.2364 82.0169 70.5145 82.0563C64.7927 82.0956 59.1857 83.6631 54.2728 86.5967C49.3599 89.5302 45.3193 93.7236 42.5684 98.7434C39.8175 103.763 38.4561 109.427 38.6248 115.151C38.7015 117.752 39.0929 120.323 39.7827 122.808C41.1587 127.767 39.9998 133.52 35.6436 136.259L29.1266 140.357C24.7637 143.101 18.9246 141.804 16.9126 137.059C14.0852 130.391 12.5081 123.231 12.2908 115.937C11.9804 105.521 14.4551 95.2112 19.4592 86.0739C24.4633 76.9365 31.8153 69.303 40.7555 63.9619C49.6957 58.6208 59.8997 55.7661 70.3133 55.6925C80.7269 55.619 90.9722 58.3294 99.9906 63.5436C109.009 68.7579 116.473 76.2868 121.613 85.3525C126.752 94.4182 129.379 104.692 129.223 115.112Z" fill="white"/>
</svg>
