<svg width="31" height="31" viewBox="0 0 31 31" fill="none" xmlns="http://www.w3.org/2000/svg">
<path fill-rule="evenodd" clip-rule="evenodd" d="M19.8599 21.5C20.4599 22.26 21.1799 23.1201 21.1799 23.1201V23.12C25.5999 22.98 27.3 20.08 27.3 20.08C27.3 13.64 24.4199 8.42013 24.4199 8.42013C21.5399 6.25997 18.7999 6.32013 18.7999 6.32013L18.5199 6.64005C21.92 7.68007 23.4999 9.18001 23.4999 9.18001C21.42 8.04005 19.3799 7.48005 17.48 7.26007C16.1366 7.11199 14.7802 7.12539 13.44 7.29999C13.3346 7.29999 13.2446 7.31537 13.1431 7.33273C13.129 7.33514 13.1146 7.33759 13.1 7.34005C12.4 7.40007 10.6999 7.65997 8.5598 8.60005C7.81988 8.94007 7.37992 9.18001 7.37992 9.18001C7.37992 9.18001 9.03996 7.59982 12.6399 6.56007L12.4399 6.31999C12.4399 6.31999 9.6999 6.25997 6.81992 8.41999C6.81992 8.41999 3.93994 13.64 3.93994 20.08C3.93994 20.08 5.6198 22.98 10.0399 23.12C10.0399 23.12 10.78 22.2201 11.3799 21.46C8.83994 20.7001 7.8799 19.1 7.8799 19.1C7.8799 19.1 8.07992 19.24 8.4399 19.4401C8.45986 19.46 8.47996 19.48 8.51988 19.5C8.54984 19.5199 8.5798 19.5349 8.60974 19.5499C8.63978 19.5649 8.66981 19.58 8.6998 19.6C9.19992 19.88 9.6999 20.1 10.16 20.2801C10.9799 20.6 11.9599 20.9199 13.1 21.14C14.5999 21.42 16.3599 21.52 18.28 21.16C19.2199 20.9999 20.1799 20.72 21.1799 20.2999C21.8799 20.0401 22.6599 19.6601 23.4799 19.12C23.4799 19.12 22.48 20.76 19.8599 21.5ZM9.84004 15.9999C9.84004 14.78 10.7399 13.78 11.8799 13.78H11.88C13.02 13.78 13.94 14.78 13.9199 15.9999C13.9199 17.22 13.02 18.22 11.8799 18.22C10.7599 18.22 9.84004 17.22 9.84004 15.9999ZM17.1399 15.9999C17.1399 14.78 18.0399 13.78 19.18 13.78C20.3199 13.78 21.2198 14.78 21.2198 15.9999C21.2198 17.22 20.3199 18.22 19.18 18.22C18.06 18.22 17.1399 17.22 17.1399 15.9999Z" fill="white"/>
</svg>
