<svg width="31" height="31" viewBox="0 0 31 31" fill="none" xmlns="http://www.w3.org/2000/svg">
<path d="M15.5 3C8.59735 3 3 8.59637 3 15.5C3 21.023 6.58164 25.7085 11.5483 27.3614C12.173 27.4771 12.4024 27.0902 12.4024 26.76C12.4024 26.462 12.3907 25.4772 12.3855 24.4328C8.90783 25.1889 8.17403 22.9579 8.17403 22.9579C7.60543 21.5131 6.78614 21.129 6.78614 21.129C5.65206 20.3531 6.87163 20.369 6.87163 20.369C8.12688 20.4572 8.78783 21.6572 8.78783 21.6572C9.9027 23.5682 11.712 23.0157 12.4254 22.6964C12.5375 21.8884 12.8615 21.337 13.219 21.0249C10.4426 20.7087 7.52386 19.6369 7.52386 14.8472C7.52386 13.4826 8.01218 12.3674 8.81185 11.4921C8.68205 11.1772 8.25423 9.90584 8.93293 8.18403C8.93293 8.18403 9.9826 7.84806 12.3713 9.46536C13.3684 9.18831 14.4377 9.04949 15.5 9.04479C16.5624 9.04949 17.6325 9.18831 18.6315 9.46536C21.0174 7.84806 22.0656 8.18403 22.0656 8.18403C22.746 9.90584 22.3179 11.1772 22.1881 11.4921C22.9896 12.3674 23.4746 13.4825 23.4746 14.8472C23.4746 19.6482 20.5504 20.7055 17.7669 21.0149C18.2152 21.4028 18.6147 22.1635 18.6147 23.3297C18.6147 25.0022 18.6002 26.3483 18.6002 26.76C18.6002 27.0927 18.8252 27.4825 19.4589 27.3597C24.4229 25.705 28 21.0211 28 15.5C28 8.59637 22.4034 3 15.5 3Z" fill="white"/>
<path d="M7.68172 19.8067C7.65427 19.8688 7.55643 19.8874 7.46751 19.8448C7.37683 19.804 7.32585 19.7193 7.35526 19.657C7.38222 19.5931 7.48006 19.5752 7.57055 19.6182C7.66143 19.6589 7.71319 19.7443 7.68172 19.8067V19.8067ZM8.2966 20.3553C8.237 20.4106 8.12043 20.3849 8.04132 20.2976C7.95955 20.2104 7.94426 20.0939 8.00475 20.0378C8.06622 19.9826 8.17925 20.0084 8.26121 20.0956C8.34297 20.1837 8.35885 20.2995 8.2965 20.3554L8.2966 20.3553ZM8.71845 21.0572C8.64179 21.1105 8.5165 21.0606 8.43915 20.9494C8.36258 20.8383 8.36258 20.705 8.44081 20.6516C8.51846 20.5981 8.64179 20.6462 8.72021 20.7565C8.79668 20.8695 8.79668 21.0028 8.71835 21.0573L8.71845 21.0572ZM9.43176 21.8702C9.36323 21.9457 9.21735 21.9255 9.11049 21.8224C9.00128 21.7216 8.97079 21.5786 9.03952 21.503C9.10883 21.4273 9.25559 21.4486 9.36323 21.5508C9.47176 21.6514 9.50489 21.7955 9.43186 21.8702H9.43176ZM10.3537 22.1447C10.3236 22.2426 10.183 22.2871 10.0414 22.2455C9.90007 22.2027 9.80753 22.088 9.83606 21.9891C9.86547 21.8905 10.0066 21.8442 10.1493 21.8887C10.2905 21.9313 10.3832 22.0451 10.3538 22.1447H10.3537ZM11.4031 22.2611C11.4066 22.3643 11.2865 22.4497 11.1379 22.4516C10.9884 22.4548 10.8675 22.3714 10.8659 22.27C10.8659 22.1659 10.9833 22.0812 11.1327 22.0788C11.2813 22.0758 11.4031 22.1587 11.4031 22.2611V22.2611ZM12.4338 22.2216C12.4517 22.3222 12.3483 22.4255 12.2008 22.453C12.0557 22.4794 11.9214 22.4174 11.9028 22.3177C11.8848 22.2146 11.9901 22.1113 12.1349 22.0846C12.2827 22.0589 12.415 22.1194 12.4338 22.2216" fill="white"/>
</svg>
