<svg width="31" height="31" viewBox="0 0 31 31" fill="none" xmlns="http://www.w3.org/2000/svg">
<path d="M18.736 17.4946C18.7218 18.4398 18.5313 19.3704 18.1778 20.2394C17.9262 20.858 17.1722 21.0372 16.6017 20.6901L15.749 20.1712C15.1791 19.8245 15.0181 19.081 15.187 18.4357C15.2716 18.1127 15.3174 17.7792 15.3225 17.4424C15.3336 16.7005 15.1466 15.969 14.7807 15.3235C14.4149 14.678 13.8835 14.1419 13.2415 13.7706C12.5994 13.3992 11.87 13.2061 11.1286 13.2112C10.3871 13.2164 9.66058 13.4195 9.02397 13.7996C8.38736 14.1797 7.86378 14.7231 7.50732 15.3736C7.15086 16.024 6.97445 16.758 6.99631 17.4997C7.00625 17.8367 7.05697 18.1698 7.14635 18.4919C7.32465 19.1344 7.17448 19.8798 6.61001 20.2348L5.76554 20.7659C5.2002 21.1214 4.44357 20.9533 4.18285 20.3384C3.81648 19.4744 3.61212 18.5466 3.58396 17.6015C3.54374 16.2518 3.86442 14.9159 4.51285 13.7318C5.16128 12.5478 6.11394 11.5587 7.27241 10.8666C8.43087 10.1745 9.75311 9.80458 11.1025 9.79505C12.4519 9.78552 13.7795 10.1367 14.9481 10.8124C16.1167 11.488 17.0839 12.4636 17.7498 13.6384C18.4157 14.8131 18.7562 16.1443 18.736 17.4946Z" fill="white"/>
<path d="M26.5418 13.6323C27.0307 15.2266 26.9798 16.9274 26.4139 18.4759C26.2155 19.0187 25.5746 19.2114 25.0641 18.9405L23.6257 18.1773C23.1153 17.9064 22.9377 17.2722 23.0634 16.7082C23.4343 15.0447 22.6726 13.2724 21.0953 12.4315C19.1997 11.421 16.8439 12.1385 15.8333 14.0341V14.0341C15.8314 14.0377 15.8269 14.039 15.8233 14.0371L13.4669 12.7868C12.9565 12.5159 12.7568 11.8771 13.095 11.4086C14.0601 10.0719 15.44 9.0763 17.0342 8.58741C18.964 7.99563 21.0498 8.19469 22.8329 9.1408C24.6159 10.0869 25.95 11.7026 26.5418 13.6323Z" fill="white"/>
</svg>
